<mxfile host="app.diagrams.net" agent="Mozilla/5.0 (Windows NT 10.0; Win64; x64) AppleWebKit/537.36 (KHTML, like Gecko) Chrome/136.0.0.0 Safari/537.36 Edg/136.0.0.0" version="27.0.4">
  <diagram id="wxSZwaym6-HAuHwnO3T7" name="Page-1">
    <mxGraphModel dx="1737" dy="1027" grid="1" gridSize="10" guides="1" tooltips="1" connect="1" arrows="1" fold="1" page="1" pageScale="1" pageWidth="850" pageHeight="1100" math="0" shadow="0">
      <root>
        <mxCell id="0" />
        <mxCell id="1" parent="0" />
        <mxCell id="H4cRTAKlJJKHduDVUm4u-41" value="" style="edgeStyle=none;rounded=0;orthogonalLoop=1;jettySize=auto;html=1;" edge="1" parent="1" source="H4cRTAKlJJKHduDVUm4u-2" target="H4cRTAKlJJKHduDVUm4u-6">
          <mxGeometry relative="1" as="geometry" />
        </mxCell>
        <mxCell id="H4cRTAKlJJKHduDVUm4u-2" value="Start" style="rounded=1;whiteSpace=wrap;html=1;arcSize=50;" vertex="1" parent="1">
          <mxGeometry x="140" y="230" width="110" height="30" as="geometry" />
        </mxCell>
        <mxCell id="H4cRTAKlJJKHduDVUm4u-7" value="" style="group" vertex="1" connectable="0" parent="1">
          <mxGeometry x="310" y="220" width="105" height="45" as="geometry" />
        </mxCell>
        <mxCell id="H4cRTAKlJJKHduDVUm4u-5" value="Object" style="html=1;whiteSpace=wrap;" vertex="1" parent="H4cRTAKlJJKHduDVUm4u-7">
          <mxGeometry x="5" width="100" height="40" as="geometry" />
        </mxCell>
        <mxCell id="H4cRTAKlJJKHduDVUm4u-6" value="T1" style="html=1;whiteSpace=wrap;" vertex="1" parent="H4cRTAKlJJKHduDVUm4u-7">
          <mxGeometry y="5" width="100" height="40" as="geometry" />
        </mxCell>
        <mxCell id="H4cRTAKlJJKHduDVUm4u-8" value="" style="group" vertex="1" connectable="0" parent="1">
          <mxGeometry x="510" y="220" width="105" height="45" as="geometry" />
        </mxCell>
        <mxCell id="H4cRTAKlJJKHduDVUm4u-9" value="Object" style="html=1;whiteSpace=wrap;" vertex="1" parent="H4cRTAKlJJKHduDVUm4u-8">
          <mxGeometry x="5" width="100" height="40" as="geometry" />
        </mxCell>
        <mxCell id="H4cRTAKlJJKHduDVUm4u-10" value="T2" style="html=1;whiteSpace=wrap;" vertex="1" parent="H4cRTAKlJJKHduDVUm4u-8">
          <mxGeometry y="5" width="100" height="40" as="geometry" />
        </mxCell>
        <mxCell id="H4cRTAKlJJKHduDVUm4u-12" value="" style="group" vertex="1" connectable="0" parent="1">
          <mxGeometry x="415" y="305" width="105" height="45" as="geometry" />
        </mxCell>
        <mxCell id="H4cRTAKlJJKHduDVUm4u-13" value="Object" style="html=1;whiteSpace=wrap;" vertex="1" parent="H4cRTAKlJJKHduDVUm4u-12">
          <mxGeometry x="5" width="100" height="40" as="geometry" />
        </mxCell>
        <mxCell id="H4cRTAKlJJKHduDVUm4u-14" value="T3" style="html=1;whiteSpace=wrap;" vertex="1" parent="H4cRTAKlJJKHduDVUm4u-12">
          <mxGeometry y="5" width="100" height="40" as="geometry" />
        </mxCell>
        <mxCell id="H4cRTAKlJJKHduDVUm4u-15" value="" style="group" vertex="1" connectable="0" parent="1">
          <mxGeometry x="575" y="387.5" width="105" height="45" as="geometry" />
        </mxCell>
        <mxCell id="H4cRTAKlJJKHduDVUm4u-16" value="Object" style="html=1;whiteSpace=wrap;" vertex="1" parent="H4cRTAKlJJKHduDVUm4u-15">
          <mxGeometry x="5" width="100" height="40" as="geometry" />
        </mxCell>
        <mxCell id="H4cRTAKlJJKHduDVUm4u-17" value="T4" style="html=1;whiteSpace=wrap;" vertex="1" parent="H4cRTAKlJJKHduDVUm4u-15">
          <mxGeometry y="5" width="100" height="40" as="geometry" />
        </mxCell>
        <mxCell id="H4cRTAKlJJKHduDVUm4u-21" value="" style="group" vertex="1" connectable="0" parent="1">
          <mxGeometry x="720" y="630" width="105" height="45" as="geometry" />
        </mxCell>
        <mxCell id="H4cRTAKlJJKHduDVUm4u-22" value="Object" style="html=1;whiteSpace=wrap;" vertex="1" parent="H4cRTAKlJJKHduDVUm4u-21">
          <mxGeometry x="5" width="100" height="40" as="geometry" />
        </mxCell>
        <mxCell id="H4cRTAKlJJKHduDVUm4u-23" value="T9" style="html=1;whiteSpace=wrap;" vertex="1" parent="H4cRTAKlJJKHduDVUm4u-21">
          <mxGeometry y="5" width="100" height="40" as="geometry" />
        </mxCell>
        <mxCell id="H4cRTAKlJJKHduDVUm4u-24" value="" style="group" vertex="1" connectable="0" parent="1">
          <mxGeometry x="575" y="560" width="105" height="45" as="geometry" />
        </mxCell>
        <mxCell id="H4cRTAKlJJKHduDVUm4u-25" value="Object" style="html=1;whiteSpace=wrap;" vertex="1" parent="H4cRTAKlJJKHduDVUm4u-24">
          <mxGeometry x="5" width="100" height="40" as="geometry" />
        </mxCell>
        <mxCell id="H4cRTAKlJJKHduDVUm4u-26" value="T8" style="html=1;whiteSpace=wrap;" vertex="1" parent="H4cRTAKlJJKHduDVUm4u-24">
          <mxGeometry y="5" width="100" height="40" as="geometry" />
        </mxCell>
        <mxCell id="H4cRTAKlJJKHduDVUm4u-27" value="" style="group" vertex="1" connectable="0" parent="1">
          <mxGeometry x="575" y="485" width="105" height="45" as="geometry" />
        </mxCell>
        <mxCell id="H4cRTAKlJJKHduDVUm4u-28" value="Object" style="html=1;whiteSpace=wrap;" vertex="1" parent="H4cRTAKlJJKHduDVUm4u-27">
          <mxGeometry x="5" width="100" height="40" as="geometry" />
        </mxCell>
        <mxCell id="H4cRTAKlJJKHduDVUm4u-29" value="T7" style="html=1;whiteSpace=wrap;" vertex="1" parent="H4cRTAKlJJKHduDVUm4u-27">
          <mxGeometry y="5" width="100" height="40" as="geometry" />
        </mxCell>
        <mxCell id="H4cRTAKlJJKHduDVUm4u-30" value="" style="group" vertex="1" connectable="0" parent="1">
          <mxGeometry x="880" y="387" width="105" height="45" as="geometry" />
        </mxCell>
        <mxCell id="H4cRTAKlJJKHduDVUm4u-31" value="Object" style="html=1;whiteSpace=wrap;" vertex="1" parent="H4cRTAKlJJKHduDVUm4u-30">
          <mxGeometry x="5" width="100" height="40" as="geometry" />
        </mxCell>
        <mxCell id="H4cRTAKlJJKHduDVUm4u-32" value="T6" style="html=1;whiteSpace=wrap;" vertex="1" parent="H4cRTAKlJJKHduDVUm4u-30">
          <mxGeometry y="5" width="100" height="40" as="geometry" />
        </mxCell>
        <mxCell id="H4cRTAKlJJKHduDVUm4u-33" value="" style="group" vertex="1" connectable="0" parent="1">
          <mxGeometry x="730" y="387" width="105" height="45" as="geometry" />
        </mxCell>
        <mxCell id="H4cRTAKlJJKHduDVUm4u-34" value="Object" style="html=1;whiteSpace=wrap;" vertex="1" parent="H4cRTAKlJJKHduDVUm4u-33">
          <mxGeometry x="5" width="100" height="40" as="geometry" />
        </mxCell>
        <mxCell id="H4cRTAKlJJKHduDVUm4u-35" value="T5" style="html=1;whiteSpace=wrap;" vertex="1" parent="H4cRTAKlJJKHduDVUm4u-33">
          <mxGeometry y="5" width="100" height="40" as="geometry" />
        </mxCell>
        <mxCell id="H4cRTAKlJJKHduDVUm4u-36" value="End" style="rounded=1;whiteSpace=wrap;html=1;arcSize=50;" vertex="1" parent="1">
          <mxGeometry x="875" y="710" width="110" height="30" as="geometry" />
        </mxCell>
        <mxCell id="H4cRTAKlJJKHduDVUm4u-48" value="" style="edgeStyle=orthogonalEdgeStyle;rounded=0;orthogonalLoop=1;jettySize=auto;html=1;" edge="1" parent="1" source="H4cRTAKlJJKHduDVUm4u-37" target="H4cRTAKlJJKHduDVUm4u-17">
          <mxGeometry relative="1" as="geometry" />
        </mxCell>
        <mxCell id="H4cRTAKlJJKHduDVUm4u-60" style="edgeStyle=orthogonalEdgeStyle;rounded=0;orthogonalLoop=1;jettySize=auto;html=1;entryX=0;entryY=0.5;entryDx=0;entryDy=0;" edge="1" parent="1" source="H4cRTAKlJJKHduDVUm4u-37" target="H4cRTAKlJJKHduDVUm4u-29">
          <mxGeometry relative="1" as="geometry">
            <Array as="points">
              <mxPoint x="470" y="510" />
            </Array>
          </mxGeometry>
        </mxCell>
        <mxCell id="H4cRTAKlJJKHduDVUm4u-37" value="M1" style="ellipse;whiteSpace=wrap;html=1;" vertex="1" parent="1">
          <mxGeometry x="429.25" y="387.5" width="72.5" height="50" as="geometry" />
        </mxCell>
        <mxCell id="H4cRTAKlJJKHduDVUm4u-52" style="edgeStyle=orthogonalEdgeStyle;rounded=0;orthogonalLoop=1;jettySize=auto;html=1;" edge="1" parent="1" source="H4cRTAKlJJKHduDVUm4u-38">
          <mxGeometry relative="1" as="geometry">
            <mxPoint x="680" y="505" as="targetPoint" />
          </mxGeometry>
        </mxCell>
        <mxCell id="H4cRTAKlJJKHduDVUm4u-38" value="M2" style="ellipse;whiteSpace=wrap;html=1;" vertex="1" parent="1">
          <mxGeometry x="893.75" y="480" width="72.5" height="50" as="geometry" />
        </mxCell>
        <mxCell id="H4cRTAKlJJKHduDVUm4u-57" value="" style="edgeStyle=orthogonalEdgeStyle;rounded=0;orthogonalLoop=1;jettySize=auto;html=1;" edge="1" parent="1" source="H4cRTAKlJJKHduDVUm4u-39" target="H4cRTAKlJJKHduDVUm4u-23">
          <mxGeometry relative="1" as="geometry" />
        </mxCell>
        <mxCell id="H4cRTAKlJJKHduDVUm4u-39" value="M3" style="ellipse;whiteSpace=wrap;html=1;" vertex="1" parent="1">
          <mxGeometry x="588" y="630" width="72.5" height="50" as="geometry" />
        </mxCell>
        <mxCell id="H4cRTAKlJJKHduDVUm4u-59" value="" style="edgeStyle=orthogonalEdgeStyle;rounded=0;orthogonalLoop=1;jettySize=auto;html=1;" edge="1" parent="1" source="H4cRTAKlJJKHduDVUm4u-40" target="H4cRTAKlJJKHduDVUm4u-36">
          <mxGeometry relative="1" as="geometry" />
        </mxCell>
        <mxCell id="H4cRTAKlJJKHduDVUm4u-40" value="M3" style="ellipse;whiteSpace=wrap;html=1;" vertex="1" parent="1">
          <mxGeometry x="734" y="700" width="72.5" height="50" as="geometry" />
        </mxCell>
        <mxCell id="H4cRTAKlJJKHduDVUm4u-42" value="" style="edgeStyle=none;rounded=0;orthogonalLoop=1;jettySize=auto;html=1;" edge="1" parent="1" source="H4cRTAKlJJKHduDVUm4u-6" target="H4cRTAKlJJKHduDVUm4u-10">
          <mxGeometry relative="1" as="geometry" />
        </mxCell>
        <mxCell id="H4cRTAKlJJKHduDVUm4u-45" style="edgeStyle=orthogonalEdgeStyle;rounded=0;orthogonalLoop=1;jettySize=auto;html=1;entryX=0;entryY=0.5;entryDx=0;entryDy=0;" edge="1" parent="1" source="H4cRTAKlJJKHduDVUm4u-6" target="H4cRTAKlJJKHduDVUm4u-14">
          <mxGeometry relative="1" as="geometry">
            <Array as="points">
              <mxPoint x="360" y="330" />
            </Array>
          </mxGeometry>
        </mxCell>
        <mxCell id="H4cRTAKlJJKHduDVUm4u-46" style="edgeStyle=orthogonalEdgeStyle;rounded=0;orthogonalLoop=1;jettySize=auto;html=1;entryX=1;entryY=0.75;entryDx=0;entryDy=0;" edge="1" parent="1" source="H4cRTAKlJJKHduDVUm4u-10" target="H4cRTAKlJJKHduDVUm4u-13">
          <mxGeometry relative="1" as="geometry" />
        </mxCell>
        <mxCell id="H4cRTAKlJJKHduDVUm4u-47" value="" style="edgeStyle=orthogonalEdgeStyle;rounded=0;orthogonalLoop=1;jettySize=auto;html=1;" edge="1" parent="1" source="H4cRTAKlJJKHduDVUm4u-14" target="H4cRTAKlJJKHduDVUm4u-37">
          <mxGeometry relative="1" as="geometry" />
        </mxCell>
        <mxCell id="H4cRTAKlJJKHduDVUm4u-49" value="" style="edgeStyle=orthogonalEdgeStyle;rounded=0;orthogonalLoop=1;jettySize=auto;html=1;" edge="1" parent="1" source="H4cRTAKlJJKHduDVUm4u-17" target="H4cRTAKlJJKHduDVUm4u-35">
          <mxGeometry relative="1" as="geometry" />
        </mxCell>
        <mxCell id="H4cRTAKlJJKHduDVUm4u-50" value="" style="edgeStyle=orthogonalEdgeStyle;rounded=0;orthogonalLoop=1;jettySize=auto;html=1;" edge="1" parent="1" source="H4cRTAKlJJKHduDVUm4u-35" target="H4cRTAKlJJKHduDVUm4u-32">
          <mxGeometry relative="1" as="geometry" />
        </mxCell>
        <mxCell id="H4cRTAKlJJKHduDVUm4u-51" value="" style="edgeStyle=orthogonalEdgeStyle;rounded=0;orthogonalLoop=1;jettySize=auto;html=1;" edge="1" parent="1" source="H4cRTAKlJJKHduDVUm4u-32" target="H4cRTAKlJJKHduDVUm4u-38">
          <mxGeometry relative="1" as="geometry" />
        </mxCell>
        <mxCell id="H4cRTAKlJJKHduDVUm4u-55" style="edgeStyle=orthogonalEdgeStyle;rounded=0;orthogonalLoop=1;jettySize=auto;html=1;exitX=0.5;exitY=1;exitDx=0;exitDy=0;entryX=0.5;entryY=0;entryDx=0;entryDy=0;" edge="1" parent="1" source="H4cRTAKlJJKHduDVUm4u-29" target="H4cRTAKlJJKHduDVUm4u-25">
          <mxGeometry relative="1" as="geometry" />
        </mxCell>
        <mxCell id="H4cRTAKlJJKHduDVUm4u-56" value="" style="edgeStyle=orthogonalEdgeStyle;rounded=0;orthogonalLoop=1;jettySize=auto;html=1;" edge="1" parent="1" source="H4cRTAKlJJKHduDVUm4u-26" target="H4cRTAKlJJKHduDVUm4u-39">
          <mxGeometry relative="1" as="geometry" />
        </mxCell>
        <mxCell id="H4cRTAKlJJKHduDVUm4u-58" value="" style="edgeStyle=orthogonalEdgeStyle;rounded=0;orthogonalLoop=1;jettySize=auto;html=1;" edge="1" parent="1" source="H4cRTAKlJJKHduDVUm4u-23" target="H4cRTAKlJJKHduDVUm4u-40">
          <mxGeometry relative="1" as="geometry" />
        </mxCell>
      </root>
    </mxGraphModel>
  </diagram>
</mxfile>
